<svg width="43" height="27" viewBox="0 0 43 27" fill="none" xmlns="http://www.w3.org/2000/svg">
<path d="M19.456 0.175998C20.896 0.175998 22.064 0.687998 22.96 1.712C23.888 2.704 24.352 4.528 24.352 7.184V26H20.656V7.856C20.656 6.096 20.544 4.912 20.32 4.304C20.096 3.664 19.552 3.344 18.688 3.344C17.056 3.344 15.584 4.352 14.272 6.368V26H10.528V7.856C10.528 6.096 10.416 4.912 10.192 4.304C9.968 3.664 9.424 3.344 8.56 3.344C6.928 3.344 5.456 4.352 4.144 6.368V26H0.448V0.704H3.568L3.856 3.68C4.624 2.56 5.424 1.696 6.256 1.088C7.12 0.479998 8.144 0.175998 9.328 0.175998C11.696 0.175998 13.216 1.296 13.888 3.536C14.656 2.448 15.472 1.616 16.336 1.04C17.2 0.463998 18.24 0.175998 19.456 0.175998ZM25.6773 14.768C25.7733 17.552 26.4933 19.648 27.8373 21.056C29.2133 22.464 30.9413 23.168 33.0213 23.168C34.2693 23.168 35.4053 22.992 36.4293 22.64C37.4853 22.256 38.6053 21.68 39.7893 20.912L41.6613 23.6C40.4773 24.528 39.1173 25.248 37.5813 25.76C36.0773 26.272 34.5573 26.528 33.0213 26.528C29.3733 26.528 26.5253 25.344 24.4773 22.976C22.4613 20.576 21.4533 17.376 21.4533 13.376C21.4533 10.848 21.9013 8.592 22.7973 6.608C23.6933 4.592 24.9733 3.024 26.6373 1.904C28.3013 0.751998 30.2373 0.175998 32.4453 0.175998C35.6453 0.175998 38.1573 1.296 39.9813 3.536C41.8373 5.744 42.7653 8.768 42.7653 12.608C42.7653 13.344 42.7333 14.064 42.6693 14.768H25.6773ZM32.4933 3.488C30.5413 3.488 28.9573 4.192 27.7413 5.6C26.5253 6.976 25.8373 9.008 25.6773 11.696H38.8293C38.7973 9.04 38.2213 7.008 37.1013 5.6C35.9813 4.192 34.4453 3.488 32.4933 3.488Z" fill="white"/>
</svg>
